<?xml version="1.0" standalone="no"?>
<!DOCTYPE svg PUBLIC "-//W3C//DTD SVG 20010904//EN"
 "http://www.w3.org/TR/2001/REC-SVG-20010904/DTD/svg10.dtd">
<svg version="1.0" xmlns="http://www.w3.org/2000/svg"
 width="150.000000pt" height="45.000000pt" viewBox="0 0 500.000000 250.000000"
 preserveAspectRatio="xMidYMid meet">

<g transform="translate(0.000000,291.000000) scale(0.100000,-0.100000)"
fill="#ffffff" stroke="none">
<path d="M3894 2370 c-78 -14 -217 -65 -289 -105 -297 -166 -475 -470 -475
-810 0 -345 178 -650 490 -837 192 -115 392 -152 620 -114 265 44 542 234 645
443 25 50 64 183 65 221 0 18 -20 15 -27 -6 -29 -81 -105 -212 -123 -212 -7 0
-5 11 4 28 15 25 28 79 61 242 19 95 24 250 7 250 -4 0 -18 -35 -30 -77 -31
-107 -109 -263 -131 -263 -10 0 -39 -29 -66 -66 -85 -116 -234 -219 -383 -266
-120 -38 -348 -22 -414 28 -7 6 -37 20 -65 32 -250 100 -417 416 -373 708 13
95 34 158 77 239 15 28 34 65 43 83 23 47 129 151 193 190 321 194 758 83 955
-243 31 -50 41 -61 36 -40 -16 76 -129 206 -240 278 -68 44 -175 98 -224 112
-14 4 -33 15 -44 24 -15 13 -42 16 -155 16 -134 0 -203 -13 -324 -57 -40 -15
-44 -2 -5 19 105 56 220 83 358 83 54 0 101 4 104 9 7 11 87 -3 156 -27 106
-37 238 -113 313 -180 48 -44 132 -156 172 -231 40 -72 44 -48 6 29 -17 34
-31 69 -31 77 0 21 -59 100 -107 143 -154 141 -202 173 -324 220 -143 54 -356
81 -475 60z"/>
<path d="M698 1748 c-3 -6 -23 -535 -20 -555 3 -22 8 -23 98 -23 57 0 102 -5
114 -12 29 -18 40 -1 45 68 2 32 9 119 16 192 l13 132 27 0 c26 0 27 -2 33
-72 3 -40 9 -129 12 -197 6 -102 10 -127 25 -142 25 -25 54 -24 81 3 17 17 36
23 78 25 74 3 95 27 105 117 12 115 -6 163 -77 206 -53 33 -68 60 -68 121 0
37 26 79 49 79 25 0 41 -15 41 -39 0 -67 27 -93 51 -50 15 29 5 100 -17 116
-10 7 -39 13 -65 13 -89 0 -127 -60 -106 -171 11 -63 19 -73 97 -122 l35 -23
3 -91 c3 -85 1 -93 -18 -103 -36 -19 -65 -9 -68 25 -5 54 -12 75 -27 75 -23 0
-37 -37 -33 -87 3 -47 -13 -70 -26 -36 -4 9 -11 119 -17 243 -5 124 -12 233
-15 243 -7 21 -54 47 -89 47 -41 0 -62 -31 -70 -103 -4 -36 -5 -70 -1 -75 5
-8 -8 -198 -20 -292 l-6 -46 -72 3 -71 2 -3 58 c-1 32 1 146 6 253 6 123 5
200 -1 208 -8 10 -34 17 -39 10z m317 -108 c0 -31 -3 -35 -25 -35 -22 0 -25 5
-28 38 -3 37 -2 38 25 35 25 -3 28 -7 28 -38z"/>
<path d="M501 1711 c-31 -31 -39 -82 -46 -287 l-7 -190 32 -32 c26 -27 39 -32
79 -32 47 0 96 23 86 41 -4 5 -30 9 -59 9 -28 0 -57 5 -64 12 -17 17 -16 384
1 418 10 21 21 26 62 28 60 4 78 17 51 38 -30 21 -112 18 -135 -5z"/>
<path d="M1411 1716 c-49 -27 -60 -74 -39 -168 14 -66 17 -69 73 -97 57 -29
69 -55 61 -144 -5 -75 -17 -97 -50 -97 -33 0 -46 19 -46 67 0 29 -4 43 -13 43
-24 0 -37 -24 -37 -70 0 -58 23 -82 77 -83 100 -2 123 28 123 158 0 101 -13
132 -70 164 -59 33 -71 53 -71 115 0 65 2 72 37 80 36 9 54 -9 54 -56 0 -40
21 -61 42 -40 17 17 13 100 -7 122 -21 24 -96 27 -134 6z"/>
<path d="M1595 1720 c-9 -15 14 -40 36 -40 18 0 19 -10 18 -182 -1 -211 -8
-284 -28 -280 -17 4 -41 -16 -41 -34 0 -11 20 -14 90 -14 75 0 90 3 90 16 0 8
-13 20 -30 25 l-30 11 0 86 c0 48 3 151 7 229 l6 142 26 3 c18 2 27 10 29 26
3 21 1 22 -82 22 -48 0 -88 -5 -91 -10z"/>
<path d="M1805 1718 c-7 -20 -10 -169 -7 -365 2 -172 3 -183 21 -183 10 0 22
8 26 17 3 10 5 113 4 230 -1 117 0 216 3 219 4 3 21 -16 40 -43 l33 -48 5
-189 c3 -113 9 -191 15 -193 29 -9 32 18 36 282 l4 270 -25 0 c-22 0 -25 -5
-28 -39 l-3 -39 -43 46 c-42 46 -72 59 -81 35z"/>
<path d="M2025 1720 c-9 -15 14 -40 36 -40 18 0 19 -10 19 -132 0 -73 -3 -176
-6 -230 -7 -96 -7 -96 -35 -102 -21 -4 -29 -11 -29 -26 0 -19 6 -20 90 -20 75
0 90 3 90 16 0 8 -13 20 -30 25 l-30 11 0 131 c0 73 3 176 7 229 6 95 6 97 32
100 18 2 27 10 29 26 3 21 1 22 -82 22 -48 0 -88 -5 -91 -10z"/>
<path d="M2236 1708 c-3 -13 -8 -132 -11 -265 l-7 -243 30 -30 c26 -25 38 -30
80 -30 43 0 54 4 74 29 23 27 25 39 31 187 10 241 9 348 -5 362 -32 32 -35 13
-42 -244 -4 -141 -10 -262 -13 -270 -7 -18 -67 -18 -82 -1 -7 9 -12 101 -13
268 -3 230 -5 254 -20 257 -11 2 -19 -5 -22 -20z"/>
<path d="M2495 1720 c-4 -6 -5 -129 -3 -273 2 -216 0 -266 -12 -284 -11 -17
-12 -25 -3 -34 18 -18 42 -3 60 38 13 32 15 68 10 233 l-6 195 25 -48 c20 -38
30 -48 47 -45 16 2 23 11 25 31 2 15 8 25 13 22 5 -4 9 -91 9 -201 0 -181 1
-195 20 -214 16 -16 25 -18 40 -10 23 12 25 23 7 38 -10 8 -13 75 -15 279 -2
195 -6 269 -15 275 -19 12 -49 -15 -64 -58 -7 -21 -16 -46 -19 -54 -4 -10 -12
3 -24 34 -11 26 -27 57 -36 67 -19 21 -49 25 -59 9z"/>
</g>
</svg>
